<svg xmlns="http://www.w3.org/2000/svg" viewBox="0 0 104.93 18.05"><defs><style>.cls-1{fill:#1d1d1b;}</style></defs><g id="Шар_2" data-name="Шар 2"><g id="Шар_1-2" data-name="Шар 1"><path class="cls-1" d="M9,13.83a6.86,6.86,0,0,1-1.34,2.46A4.25,4.25,0,0,1,4.27,18a3.69,3.69,0,0,1-3.12-1.57A6.89,6.89,0,0,1,0,12.19a7.1,7.1,0,0,1,1.64-5,4.09,4.09,0,0,1,3-1.41,3.49,3.49,0,0,1,2.6,1A5.21,5.21,0,0,1,8.6,10.24H1.08A9.12,9.12,0,0,0,2.3,15.3a2.9,2.9,0,0,0,2.5,1.41c1.6,0,2.9-1,3.92-3ZM6.94,9.59c-.22-2-1.14-3-2.77-3-1.44,0-2.44,1-3,3Z"/><path class="cls-1" d="M20.81,17.81H16.12v-.4h.26a.65.65,0,0,0,.42-.18.58.58,0,0,0,.24-.47,2.68,2.68,0,0,0-.61-1L12.8,11.09v4.75c0,.94.54,1.46,1.64,1.55l.28,0v.4H9.61v-.4a3.64,3.64,0,0,0,1.57-.53,2.18,2.18,0,0,0,.35-1.46v-12q0-1.83-1.38-1.83a3.44,3.44,0,0,0-.54,0V1.15A26.3,26.3,0,0,0,12.8,0V10.92l.23-.14c.72-.64,1.74-1.57,3.07-2.79a1.31,1.31,0,0,0,.52-.87.48.48,0,0,0-.12-.39,1.54,1.54,0,0,0-.89-.19V6.19h4.66v.37A4.29,4.29,0,0,0,18,7.08a21.2,21.2,0,0,0-2.67,2.37l-1.19,1.14,3.72,4.93a4.19,4.19,0,0,0,2.93,1.89Z"/><path class="cls-1" d="M28.57,14.72a3.11,3.11,0,0,1-1.08,2.48,3.34,3.34,0,0,1-2.18.8,5.48,5.48,0,0,1-1.54-.28,5.43,5.43,0,0,0-1.18-.31c-.18,0-.32.16-.39.47h-.31V14h.35A8.05,8.05,0,0,0,23,16.22a2.34,2.34,0,0,0,2.2,1.17q2.25,0,2.25-1.92a2.51,2.51,0,0,0-1.29-2.06l-1.34-.94c-1.2-.83-1.86-1.3-2-1.41a2.85,2.85,0,0,1-.91-2.13,3.17,3.17,0,0,1,.75-2.11,3,3,0,0,1,2.39-1,2.89,2.89,0,0,1,1.24.3,3.25,3.25,0,0,0,.77.29c.18,0,.28-.13.31-.38h.35l.14,3.38h-.37a5.39,5.39,0,0,0-1-2.56A2,2,0,0,0,25,6.28a2,2,0,0,0-1.57.66,1.75,1.75,0,0,0-.53,1.26A2.26,2.26,0,0,0,24,10.12l2.53,1.72A7.19,7.19,0,0,1,28,13,2.62,2.62,0,0,1,28.57,14.72Z"/><path class="cls-1" d="M33.56,16.71a1.38,1.38,0,0,1-.44,1,1.31,1.31,0,0,1-.82.31,1.15,1.15,0,0,1-.8-.31,1.35,1.35,0,0,1-.42-1,1.82,1.82,0,0,1,.35-1.12,1.05,1.05,0,0,1,.87-.45,1.18,1.18,0,0,1,.91.45A1.76,1.76,0,0,1,33.56,16.71Z"/><path class="cls-1" d="M50.86,1a1.89,1.89,0,0,0-1.13.45,6.17,6.17,0,0,0-.86,1.8L43.5,18,38.06,3.59a6,6,0,0,0-1.24-2.18A2.6,2.6,0,0,0,35.48,1V.52H41.3V1a5.9,5.9,0,0,0-1.46.24.8.8,0,0,0-.51.82,15.89,15.89,0,0,0,.91,2.86l3.61,9.65L47.72,4a5.9,5.9,0,0,0,.42-1.85c0-.52-.17-.85-.52-1A5.76,5.76,0,0,0,46.41,1V.52h4.45Z"/><path class="cls-1" d="M58.5,17.81H51.8v-.47a3.28,3.28,0,0,0,2.08-.58,2.56,2.56,0,0,0,.57-1.92V3.59a2.68,2.68,0,0,0-.59-2,3.8,3.8,0,0,0-2.06-.54V.59h6.7v.46a3.92,3.92,0,0,0-2,.47,2.54,2.54,0,0,0-.7,2.07V14.84a2.4,2.4,0,0,0,.7,2,3.36,3.36,0,0,0,2,.49Z"/><path class="cls-1" d="M74.86,1a2.75,2.75,0,0,0-1.55.52,5.36,5.36,0,0,0-.44,2.74V18.05h-.05L62.2,3.23H62V13.76a5.06,5.06,0,0,0,.51,2.74,2.28,2.28,0,0,0,1.81.84v.47H59.18v-.47A1.93,1.93,0,0,0,61,16.12a11.22,11.22,0,0,0,.14-2.36V2.25a3.54,3.54,0,0,0-1-1.13,3.29,3.29,0,0,0-1-.14V.52h3.23l9.71,13.73v-10a4.33,4.33,0,0,0-.59-2.74A3,3,0,0,0,69.75,1V.52h5.11Z"/><path class="cls-1" d="M91,1.1a2.72,2.72,0,0,0-1.43.38,9.49,9.49,0,0,0-1.55,2.11L84.19,10v4.76a2.87,2.87,0,0,0,.56,2,3.16,3.16,0,0,0,2.11.58v.47H80.11v-.47a2.88,2.88,0,0,0,2.13-.72,3.72,3.72,0,0,0,.45-2.21V10l-3.26-5.6a13.8,13.8,0,0,0-2-2.79,1.64,1.64,0,0,0-1.14-.54H76l-.35,0V.56h6.19V1.1a6.23,6.23,0,0,0-1.36.21A.7.7,0,0,0,80,2a2.43,2.43,0,0,0,.39,1.1l3.5,5.76,3.54-6A1.92,1.92,0,0,0,87.77,2q0-.87-1.47-.87V.56H91Z"/><path class="cls-1" d="M104.93,13.48l-1,4.33H91.71v-.47a2.93,2.93,0,0,0,1.71-.56,2.75,2.75,0,0,0,.61-2V3.47a2.55,2.55,0,0,0-.63-2A3.38,3.38,0,0,0,91.71,1V.56H98V1a3.25,3.25,0,0,0-1.79.35,2.62,2.62,0,0,0-.65,2.09v12.3c0,.57.14.92.42,1.06A6.86,6.86,0,0,0,98,17a11.32,11.32,0,0,0,4-.47,5.1,5.1,0,0,0,2.42-3.07Z"/></g></g></svg>