<svg xmlns="http://www.w3.org/2000/svg" viewBox="0 0 111.55 19.03"><defs><style>.cls-1{fill:#fff;}</style></defs><g id="Шар_2" data-name="Шар 2"><g id="Шар_1-2" data-name="Шар 1"><path class="cls-1" d="M9.57,14.59a7.21,7.21,0,0,1-1.42,2.59A4.56,4.56,0,0,1,4.53,19a4,4,0,0,1-3.31-1.66A7.27,7.27,0,0,1,0,12.85,7.45,7.45,0,0,1,1.74,7.59,4.38,4.38,0,0,1,4.93,6.11,3.75,3.75,0,0,1,7.7,7.17,5.51,5.51,0,0,1,9.14,10.8h-8a9.53,9.53,0,0,0,1.29,5.34,3.11,3.11,0,0,0,2.67,1.49q2.53,0,4.16-3.17ZM7.38,10.11C7.14,8,6.16,7,4.44,7q-2.3,0-3.22,3.16Z"/><path class="cls-1" d="M22.13,18.79h-5v-.42h.28a.7.7,0,0,0,.45-.2.62.62,0,0,0,.24-.49,2.75,2.75,0,0,0-.64-1l-3.87-5v5c0,1,.59,1.53,1.75,1.63l.3,0v.42H10.22v-.42a3.86,3.86,0,0,0,1.67-.57,2.29,2.29,0,0,0,.37-1.53V3.56c0-1.29-.49-1.93-1.47-1.93a3.88,3.88,0,0,0-.57.05V1.21A26.37,26.37,0,0,0,13.6,0V11.52l.25-.15q1.15-1,3.27-2.94a1.44,1.44,0,0,0,.55-.92.55.55,0,0,0-.13-.42,1.74,1.74,0,0,0-.95-.19V6.53h5v.39a4.55,4.55,0,0,0-2.39.55A22.63,22.63,0,0,0,16.32,10l-1.27,1.21,4,5.19a4.47,4.47,0,0,0,3.12,2Z"/><path class="cls-1" d="M30.37,15.52a3.28,3.28,0,0,1-1.14,2.62,3.52,3.52,0,0,1-2.32.85,5.91,5.91,0,0,1-1.64-.3A5.26,5.26,0,0,0,24,18.37c-.2,0-.34.16-.42.49h-.33v-4.1h.38a8.67,8.67,0,0,0,.74,2.35,2.53,2.53,0,0,0,2.35,1.23c1.59,0,2.39-.67,2.39-2a2.67,2.67,0,0,0-1.37-2.18l-1.42-1c-1.28-.87-2-1.37-2.12-1.48a3,3,0,0,1-1-2.25A3.34,3.34,0,0,1,24,7.19a3.23,3.23,0,0,1,2.55-1.08,3,3,0,0,1,1.32.32,3.12,3.12,0,0,0,.82.29c.18,0,.29-.13.32-.39h.38l.15,3.56h-.4a5.71,5.71,0,0,0-1-2.7,2.12,2.12,0,0,0-1.6-.56,2.19,2.19,0,0,0-1.67.69,1.87,1.87,0,0,0-.57,1.33,2.39,2.39,0,0,0,1.2,2l2.69,1.8a7.84,7.84,0,0,1,1.52,1.22A2.73,2.73,0,0,1,30.37,15.52Z"/><path class="cls-1" d="M35.68,17.63a1.44,1.44,0,0,1-.47,1.08,1.4,1.4,0,0,1-.87.32,1.24,1.24,0,0,1-.85-.32A1.41,1.41,0,0,1,33,17.63a1.9,1.9,0,0,1,.37-1.19,1.16,1.16,0,0,1,.93-.47,1.31,1.31,0,0,1,1,.47A1.9,1.9,0,0,1,35.68,17.63Z"/><path class="cls-1" d="M54.07,1a1.91,1.91,0,0,0-1.2.47A6.52,6.52,0,0,0,52,3.41L46.25,19,40.47,3.78a6.39,6.39,0,0,0-1.33-2.3A2.64,2.64,0,0,0,37.72,1V.54H43.9V1a5.87,5.87,0,0,0-1.54.25.83.83,0,0,0-.55.86,16.49,16.49,0,0,0,1,3l3.84,10.18L50.73,4.23a6.19,6.19,0,0,0,.45-2c0-.54-.18-.89-.55-1A5,5,0,0,0,49.34,1V.54h4.73Z"/><path class="cls-1" d="M62.19,18.79H55.07v-.5a3.55,3.55,0,0,0,2.21-.61,2.7,2.7,0,0,0,.6-2V3.78a2.82,2.82,0,0,0-.62-2.1,4,4,0,0,0-2.19-.57V.62h7.12v.49a4.07,4.07,0,0,0-2.09.5,2.63,2.63,0,0,0-.75,2.17V15.65a2.52,2.52,0,0,0,.75,2.12,3.53,3.53,0,0,0,2.09.52Z"/><path class="cls-1" d="M79.58,1a2.81,2.81,0,0,0-1.64.54,5.5,5.5,0,0,0-.47,2.89V19h0L66.13,3.41h-.25v11.1a5.21,5.21,0,0,0,.55,2.89,2.44,2.44,0,0,0,1.92.89v.5H62.92v-.5a2,2,0,0,0,2-1.28,11.5,11.5,0,0,0,.15-2.5V2.37a3.42,3.42,0,0,0-1-1.18A2.83,2.83,0,0,0,62.92,1V.54h3.43L76.67,15V4.47a4.59,4.59,0,0,0-.62-2.89A3.31,3.31,0,0,0,74.15,1V.54h5.43Z"/><path class="cls-1" d="M96.78,1.16a2.92,2.92,0,0,0-1.52.4,10,10,0,0,0-1.65,2.22L89.5,10.53v5a3,3,0,0,0,.6,2.13,3.42,3.42,0,0,0,2.24.61v.5H85.17v-.5a3.06,3.06,0,0,0,2.26-.76,3.89,3.89,0,0,0,.48-2.33V10.56L84.44,4.65a14.51,14.51,0,0,0-2.06-2.94,1.79,1.79,0,0,0-1.23-.57h-.32l-.37,0V.59H87v.57a6.82,6.82,0,0,0-1.45.22.74.74,0,0,0-.52.75,2.52,2.52,0,0,0,.42,1.16L89.2,9.37,93,3a2,2,0,0,0,.34-1c0-.61-.52-.92-1.57-.92V.59h5Z"/><path class="cls-1" d="M111.55,14.21l-1.09,4.58h-13v-.5a3.23,3.23,0,0,0,1.82-.59,2.91,2.91,0,0,0,.65-2.15V3.66a2.66,2.66,0,0,0-.68-2.13,3.53,3.53,0,0,0-1.79-.44V.59h6.63v.5a3.41,3.41,0,0,0-1.9.37,2.71,2.71,0,0,0-.69,2.2v13q0,.88.45,1.11a7.1,7.1,0,0,0,2.16.2,12,12,0,0,0,4.31-.5A5.29,5.29,0,0,0,111,14.21Z"/></g></g></svg>